<svg width='15' height='15' viewBox='3 3 18 18' xmlns='http://www.w3.org/2000/svg' xmlns:xlink='http://www.w3.org/1999/xlink'>
  <g transform="matrix(0.53 0 0 0.53 12 12)" >
    <path style="stroke: white; stroke-width: 2; stroke-dasharray: none; stroke-linecap: butt; stroke-dashoffset: 0; stroke-linejoin: miter; stroke-miterlimit: 4; fill: #212121; fill-rule: nonzero; opacity: 1;" transform=" translate(-25, -25)" d="M 39 7 L 11 7 C 8.24 7 6 9.24 6 12 L 6 38 C 6 40.76 8.24 43 11 43 L 39 43 C 41.76 43 44 40.76 44 38 L 44 12 C 44 9.24 41.76 7 39 7 z M 38 32 C 38 32.55 37.55 33 37 33 L 26.41 33 L 28.71 35.29 C 29.1 35.68 29.1 36.32 28.71 36.71 C 28.51 36.9 28.26 37 28 37 C 27.74 37 27.49 36.9 27.29 36.71 L 23.29 32.71 C 23.2 32.62 23.13 32.5 23.08 32.38 C 22.979999999999997 32.14 22.979999999999997 31.860000000000003 23.08 31.62 C 23.13 31.5 23.2 31.380000000000003 23.29 31.290000000000003 L 27.29 27.290000000000003 C 27.68 26.900000000000002 28.32 26.900000000000002 28.71 27.290000000000003 C 29.1 27.680000000000003 29.1 28.320000000000004 28.71 28.71 L 26.41 31 L 36 31 L 36 27 L 34 27 C 33.45 27 33 26.55 33 26 C 33 25.45 33.45 25 34 25 L 37 25 C 37.55 25 38 25.45 38 26 L 38 32 z" stroke-linecap="round" />
  </g>
</svg>