<svg xmlns="http://www.w3.org/2000/svg" xmlns:xlink="http://www.w3.org/1999/xlink" width="500" zoomAndPan="magnify" viewBox="0 0 375 374.999991" height="500" preserveAspectRatio="xMidYMid meet" version="1.0"><defs><clipPath id="333ccc1ada"><path d="M 0 172.921875 L 375 172.921875 L 375 375 L 0 375 Z M 0 172.921875 " clip-rule="nonzero"/></clipPath><clipPath id="49c31788ee"><path d="M 69.75 172.921875 L 305.25 172.921875 C 323.75 172.921875 341.488281 180.269531 354.570312 193.351562 C 367.652344 206.433594 375 224.171875 375 242.671875 L 375 305.25 C 375 323.75 367.652344 341.488281 354.570312 354.570312 C 341.488281 367.652344 323.75 375 305.25 375 L 69.75 375 C 31.226562 375 0 343.773438 0 305.25 L 0 242.671875 C 0 204.152344 31.226562 172.921875 69.75 172.921875 Z M 69.75 172.921875 " clip-rule="nonzero"/></clipPath><clipPath id="f7cb013e56"><path d="M 0 130.726562 L 375 130.726562 L 375 326.144531 L 0 326.144531 Z M 0 130.726562 " clip-rule="nonzero"/></clipPath><clipPath id="b15a3fc5f0"><path d="M 69.75 130.726562 L 305.25 130.726562 C 323.75 130.726562 341.488281 138.074219 354.570312 151.15625 C 367.652344 164.238281 375 181.976562 375 200.476562 L 375 256.394531 C 375 274.894531 367.652344 292.632812 354.570312 305.714844 C 341.488281 318.796875 323.75 326.144531 305.25 326.144531 L 69.75 326.144531 C 31.226562 326.144531 0 294.917969 0 256.394531 L 0 200.476562 C 0 161.953125 31.226562 130.726562 69.75 130.726562 Z M 69.75 130.726562 " clip-rule="nonzero"/></clipPath><clipPath id="84d3e87d88"><path d="M 167.335938 0 L 375 0 L 375 326.910156 L 167.335938 326.910156 Z M 167.335938 0 " clip-rule="nonzero"/></clipPath><clipPath id="9e12211d82"><path d="M 237.085938 0 L 305.25 0 C 323.75 0 341.488281 7.347656 354.570312 20.429688 C 367.652344 33.511719 375 51.25 375 69.75 L 375 256.394531 C 375 274.894531 367.652344 292.636719 354.570312 305.714844 C 341.488281 318.796875 323.75 326.144531 305.25 326.144531 L 237.085938 326.144531 C 198.5625 326.144531 167.335938 294.917969 167.335938 256.394531 L 167.335938 69.75 C 167.335938 31.226562 198.5625 0 237.085938 0 Z M 237.085938 0 " clip-rule="nonzero"/></clipPath><clipPath id="187c340511"><path d="M 231.875 192.957031 L 266.851562 192.957031 L 266.851562 229.695312 L 231.875 229.695312 Z M 231.875 192.957031 " clip-rule="nonzero"/></clipPath><clipPath id="4d3e442098"><path d="M 200.285156 173.722656 L 265.222656 173.722656 L 265.222656 229.695312 L 200.285156 229.695312 Z M 200.285156 173.722656 " clip-rule="nonzero"/></clipPath><clipPath id="9fb2c6c847"><path d="M 221.285156 173.722656 L 244.03125 173.722656 C 255.628906 173.722656 265.03125 183.125 265.03125 194.722656 L 265.03125 208.695312 C 265.03125 220.292969 255.628906 229.695312 244.03125 229.695312 L 221.285156 229.695312 C 209.683594 229.695312 200.285156 220.292969 200.285156 208.695312 L 200.285156 194.722656 C 200.285156 183.125 209.683594 173.722656 221.285156 173.722656 Z M 221.285156 173.722656 " clip-rule="nonzero"/></clipPath></defs><g clip-path="url(#333ccc1ada)"><g clip-path="url(#49c31788ee)"><path fill="#121212" d="M 0 172.921875 L 374.949219 172.921875 L 374.949219 375 L 0 375 Z M 0 172.921875 " fill-opacity="1" fill-rule="nonzero"/></g></g><g clip-path="url(#f7cb013e56)"><g clip-path="url(#b15a3fc5f0)"><path fill="#252525" d="M 0 130.726562 L 374.804688 130.726562 L 374.804688 326.144531 L 0 326.144531 Z M 0 130.726562 " fill-opacity="1" fill-rule="nonzero"/></g></g><g clip-path="url(#84d3e87d88)"><g clip-path="url(#9e12211d82)"><path fill="#252525" d="M 167.335938 0 L 375 0 L 375 326.097656 L 167.335938 326.097656 Z M 167.335938 0 " fill-opacity="1" fill-rule="nonzero"/></g></g><path stroke-linecap="round" transform="matrix(-0.75, 0, 0, -0.75, 291.885746, 257.210434)" fill="none" stroke-linejoin="miter" d="M 18.498704 18.499329 L 135.514337 18.499329 " stroke="#ffffff" stroke-width="37" stroke-opacity="1" stroke-miterlimit="4"/><path stroke-linecap="round" transform="matrix(-0.75, 0, 0, -0.75, 291.885746, 257.210434)" fill-opacity="1" fill="#ffffff" fill-rule="nonzero" stroke-linejoin="round" d="M 154.014338 -37.000674 L 228.014343 18.499329 L 154.014338 73.999333 Z M 154.014338 -37.000674 " stroke="#ffffff" stroke-width="37" stroke-opacity="1" stroke-miterlimit="4"/><path stroke-linecap="round" transform="matrix(0, -0.75, 0.75, 0, 264.665142, 255.381751)" fill="none" stroke-linejoin="miter" d="M 18.498586 18.498561 L 113.373592 18.498561 " stroke="#ffffff" stroke-width="37" stroke-opacity="1" stroke-miterlimit="4"/><g clip-path="url(#187c340511)"><path fill="#ffffff" d="M 231.875 192.957031 L 266.851562 192.957031 L 266.851562 229.707031 L 231.875 229.707031 Z M 231.875 192.957031 " fill-opacity="1" fill-rule="nonzero"/></g><g clip-path="url(#4d3e442098)"><g clip-path="url(#9fb2c6c847)"><path fill="#252525" d="M 200.285156 173.722656 L 265.003906 173.722656 L 265.003906 229.695312 L 200.285156 229.695312 Z M 200.285156 173.722656 " fill-opacity="1" fill-rule="nonzero"/></g></g></svg>