<svg enable-background="new 0 0 1024 1024" viewBox="0 0 1024 1024" xmlns="http://www.w3.org/2000/svg"><circle cx="512" cy="512" fill="#fd5000" r="512"/><g fill="#fff"><path d="m426.5 455.7-33.1-65-1.8-3.6c-5.1-9.1-12.8-16.4-22.2-21 3.1-1.5 6.3-2.7 9.7-3.6 4.2-1.1 8.6-1.6 13-1.6h69.4c18.4.1 35.4 10 44.6 26l1.8 3.6 89.7 177.8 33.1 65 1.8 3.6c5.2 9.2 13 16.6 22.4 21.2-7 3.4-14.7 5.2-22.5 5.3h-69.8c-18.4-.1-35.4-10-44.5-26l-1.9-3.6z"/><path d="m754.3 365.1c-6.4-2.8-13.3-4.2-20.3-4.3l-.1-.3c-18.6 0-35.7 10.1-44.7 26.3l-1 2.1-39.8 79-44.2 87.1 3.9 7.7 33.1 65 1.7 3.3c4 7 10 12.6 17.2 16.2l6.1 3c4.3-3.8 8-8.3 10.9-13.4l1.8-3.6 99.5-196.3 2.4-4.7c11.2-25.7-.6-55.8-26.5-67.1z"/><path d="m382.9 396-1.7-3.3c-4-6.9-9.8-12.5-17-16l-6-3c-4.3 3.8-8 8.3-10.8 13.3l-1.9 3.6-99.6 196.1-2.4 4.7c-11.5 25.8.1 56 25.8 67.5 24.2 10.8 52.7 1.3 65.5-22l1.1-2.1 40.1-79 44-86.8-4.1-8z"/></g></svg>